<mxfile host="app.diagrams.net" modified="2023-08-31T08:34:57.748Z" agent="Mozilla/5.0 (Windows NT 10.0; Win64; x64) AppleWebKit/537.36 (KHTML, like Gecko) Chrome/116.0.0.0 Safari/537.36" etag="4vdpX3mZzQ8M7SQMlr4X" version="21.6.8" type="device">
  <diagram id="C5RBs43oDa-KdzZeNtuy" name="Page-1">
    <mxGraphModel dx="1185" dy="1822" grid="1" gridSize="10" guides="1" tooltips="1" connect="1" arrows="1" fold="1" page="1" pageScale="1" pageWidth="827" pageHeight="1169" math="0" shadow="0">
      <root>
        <mxCell id="WIyWlLk6GJQsqaUBKTNV-0" />
        <mxCell id="WIyWlLk6GJQsqaUBKTNV-1" parent="WIyWlLk6GJQsqaUBKTNV-0" />
        <mxCell id="WNNLf0Y4ya_njdrN2upR-17" style="edgeStyle=orthogonalEdgeStyle;rounded=0;orthogonalLoop=1;jettySize=auto;html=1;entryX=0.547;entryY=0.019;entryDx=0;entryDy=0;entryPerimeter=0;" parent="WIyWlLk6GJQsqaUBKTNV-1" source="WNNLf0Y4ya_njdrN2upR-33" target="q7FJDD5VSt3NeZFvOub5-15" edge="1">
          <mxGeometry relative="1" as="geometry">
            <mxPoint x="220" y="1200" as="targetPoint" />
          </mxGeometry>
        </mxCell>
        <mxCell id="WNNLf0Y4ya_njdrN2upR-36" value="Да" style="edgeLabel;html=1;align=center;verticalAlign=middle;resizable=0;points=[];" parent="WNNLf0Y4ya_njdrN2upR-17" vertex="1" connectable="0">
          <mxGeometry x="0.5759" y="-2" relative="1" as="geometry">
            <mxPoint x="2" y="-81" as="offset" />
          </mxGeometry>
        </mxCell>
        <mxCell id="WNNLf0Y4ya_njdrN2upR-20" style="edgeStyle=orthogonalEdgeStyle;rounded=0;orthogonalLoop=1;jettySize=auto;html=1;entryX=0.5;entryY=0;entryDx=0;entryDy=0;" parent="WIyWlLk6GJQsqaUBKTNV-1" source="WNNLf0Y4ya_njdrN2upR-19" edge="1">
          <mxGeometry relative="1" as="geometry">
            <mxPoint x="220" y="40" as="targetPoint" />
          </mxGeometry>
        </mxCell>
        <mxCell id="WNNLf0Y4ya_njdrN2upR-19" value="" style="strokeWidth=2;html=1;shape=mxgraph.flowchart.start_2;whiteSpace=wrap;" parent="WIyWlLk6GJQsqaUBKTNV-1" vertex="1">
          <mxGeometry x="200" y="-50" width="40" height="40" as="geometry" />
        </mxCell>
        <mxCell id="q7FJDD5VSt3NeZFvOub5-13" style="edgeStyle=orthogonalEdgeStyle;rounded=0;orthogonalLoop=1;jettySize=auto;html=1;entryX=0.507;entryY=-0.069;entryDx=0;entryDy=0;entryPerimeter=0;" edge="1" parent="WIyWlLk6GJQsqaUBKTNV-1" source="WNNLf0Y4ya_njdrN2upR-31" target="q7FJDD5VSt3NeZFvOub5-12">
          <mxGeometry relative="1" as="geometry" />
        </mxCell>
        <mxCell id="WNNLf0Y4ya_njdrN2upR-31" value="isGuessed=false&lt;br&gt;min = 1&lt;br&gt;nax = 100&lt;br&gt;numTries = 0" style="rounded=1;whiteSpace=wrap;html=1;absoluteArcSize=1;arcSize=14;strokeWidth=2;" parent="WIyWlLk6GJQsqaUBKTNV-1" vertex="1">
          <mxGeometry x="170" y="610" width="100" height="80" as="geometry" />
        </mxCell>
        <mxCell id="WNNLf0Y4ya_njdrN2upR-33" value="Спросить, угадано ли число?" style="html=1;strokeWidth=2;shape=manualInput;whiteSpace=wrap;rounded=1;size=26;arcSize=11;" parent="WIyWlLk6GJQsqaUBKTNV-1" vertex="1">
          <mxGeometry x="170" y="840" width="100" height="70" as="geometry" />
        </mxCell>
        <mxCell id="WNNLf0Y4ya_njdrN2upR-41" style="edgeStyle=orthogonalEdgeStyle;rounded=0;orthogonalLoop=1;jettySize=auto;html=1;" parent="WIyWlLk6GJQsqaUBKTNV-1" source="WNNLf0Y4ya_njdrN2upR-35" target="WNNLf0Y4ya_njdrN2upR-40" edge="1">
          <mxGeometry relative="1" as="geometry" />
        </mxCell>
        <mxCell id="WNNLf0Y4ya_njdrN2upR-35" value="Угадано ли число?" style="strokeWidth=2;html=1;shape=mxgraph.flowchart.decision;whiteSpace=wrap;" parent="WIyWlLk6GJQsqaUBKTNV-1" vertex="1">
          <mxGeometry x="170" y="930" width="100" height="100" as="geometry" />
        </mxCell>
        <mxCell id="q7FJDD5VSt3NeZFvOub5-20" style="edgeStyle=orthogonalEdgeStyle;rounded=0;orthogonalLoop=1;jettySize=auto;html=1;entryX=0.039;entryY=0.503;entryDx=0;entryDy=0;entryPerimeter=0;" edge="1" parent="WIyWlLk6GJQsqaUBKTNV-1" source="WNNLf0Y4ya_njdrN2upR-40" target="q7FJDD5VSt3NeZFvOub5-19">
          <mxGeometry relative="1" as="geometry" />
        </mxCell>
        <mxCell id="WNNLf0Y4ya_njdrN2upR-40" value="Спросить, больше ли или меньше число" style="shape=manualInput;whiteSpace=wrap;html=1;" parent="WIyWlLk6GJQsqaUBKTNV-1" vertex="1">
          <mxGeometry x="305" y="930" width="130" height="100" as="geometry" />
        </mxCell>
        <mxCell id="q7FJDD5VSt3NeZFvOub5-2" value="" style="strokeWidth=2;html=1;shape=mxgraph.flowchart.terminator;whiteSpace=wrap;" vertex="1" parent="WIyWlLk6GJQsqaUBKTNV-1">
          <mxGeometry x="165" y="1330" width="100" height="60" as="geometry" />
        </mxCell>
        <mxCell id="q7FJDD5VSt3NeZFvOub5-10" style="edgeStyle=orthogonalEdgeStyle;rounded=0;orthogonalLoop=1;jettySize=auto;html=1;entryX=0.513;entryY=-0.067;entryDx=0;entryDy=0;entryPerimeter=0;" edge="1" parent="WIyWlLk6GJQsqaUBKTNV-1" source="q7FJDD5VSt3NeZFvOub5-7" target="q7FJDD5VSt3NeZFvOub5-9">
          <mxGeometry relative="1" as="geometry" />
        </mxCell>
        <mxCell id="q7FJDD5VSt3NeZFvOub5-7" value="" style="strokeWidth=2;html=1;shape=mxgraph.flowchart.start_2;whiteSpace=wrap;" vertex="1" parent="WIyWlLk6GJQsqaUBKTNV-1">
          <mxGeometry x="170" y="360" width="100" height="100" as="geometry" />
        </mxCell>
        <mxCell id="q7FJDD5VSt3NeZFvOub5-11" style="edgeStyle=orthogonalEdgeStyle;rounded=0;orthogonalLoop=1;jettySize=auto;html=1;entryX=0.421;entryY=-0.025;entryDx=0;entryDy=0;entryPerimeter=0;" edge="1" parent="WIyWlLk6GJQsqaUBKTNV-1" source="q7FJDD5VSt3NeZFvOub5-9" target="WNNLf0Y4ya_njdrN2upR-31">
          <mxGeometry relative="1" as="geometry" />
        </mxCell>
        <mxCell id="q7FJDD5VSt3NeZFvOub5-9" value="Попросить загадать число от 1 до 100" style="strokeWidth=2;html=1;shape=mxgraph.flowchart.display;whiteSpace=wrap;" vertex="1" parent="WIyWlLk6GJQsqaUBKTNV-1">
          <mxGeometry x="170" y="500" width="100" height="60" as="geometry" />
        </mxCell>
        <mxCell id="q7FJDD5VSt3NeZFvOub5-14" style="edgeStyle=orthogonalEdgeStyle;rounded=0;orthogonalLoop=1;jettySize=auto;html=1;entryX=0.501;entryY=0.151;entryDx=0;entryDy=0;entryPerimeter=0;" edge="1" parent="WIyWlLk6GJQsqaUBKTNV-1" source="q7FJDD5VSt3NeZFvOub5-12" target="WNNLf0Y4ya_njdrN2upR-33">
          <mxGeometry relative="1" as="geometry" />
        </mxCell>
        <mxCell id="q7FJDD5VSt3NeZFvOub5-12" value="guess = (min + max) / 2" style="rounded=1;whiteSpace=wrap;html=1;absoluteArcSize=1;arcSize=14;strokeWidth=2;" vertex="1" parent="WIyWlLk6GJQsqaUBKTNV-1">
          <mxGeometry x="170" y="730" width="100" height="50" as="geometry" />
        </mxCell>
        <mxCell id="q7FJDD5VSt3NeZFvOub5-17" style="edgeStyle=orthogonalEdgeStyle;rounded=0;orthogonalLoop=1;jettySize=auto;html=1;entryX=0.489;entryY=-0.067;entryDx=0;entryDy=0;entryPerimeter=0;" edge="1" parent="WIyWlLk6GJQsqaUBKTNV-1" source="q7FJDD5VSt3NeZFvOub5-15" target="q7FJDD5VSt3NeZFvOub5-2">
          <mxGeometry relative="1" as="geometry" />
        </mxCell>
        <mxCell id="q7FJDD5VSt3NeZFvOub5-15" value="Вывести num tries и попрощаться с пользователем" style="strokeWidth=2;html=1;shape=mxgraph.flowchart.display;whiteSpace=wrap;" vertex="1" parent="WIyWlLk6GJQsqaUBKTNV-1">
          <mxGeometry x="150" y="1200" width="130" height="60" as="geometry" />
        </mxCell>
        <mxCell id="q7FJDD5VSt3NeZFvOub5-23" style="edgeStyle=orthogonalEdgeStyle;rounded=0;orthogonalLoop=1;jettySize=auto;html=1;entryX=-0.036;entryY=0.593;entryDx=0;entryDy=0;entryPerimeter=0;" edge="1" parent="WIyWlLk6GJQsqaUBKTNV-1" source="q7FJDD5VSt3NeZFvOub5-19" target="q7FJDD5VSt3NeZFvOub5-22">
          <mxGeometry relative="1" as="geometry">
            <Array as="points">
              <mxPoint x="540" y="1104" />
            </Array>
          </mxGeometry>
        </mxCell>
        <mxCell id="q7FJDD5VSt3NeZFvOub5-27" value="Нет" style="edgeLabel;html=1;align=center;verticalAlign=middle;resizable=0;points=[];" vertex="1" connectable="0" parent="q7FJDD5VSt3NeZFvOub5-23">
          <mxGeometry x="0.3689" y="1" relative="1" as="geometry">
            <mxPoint as="offset" />
          </mxGeometry>
        </mxCell>
        <mxCell id="q7FJDD5VSt3NeZFvOub5-24" style="edgeStyle=orthogonalEdgeStyle;rounded=0;orthogonalLoop=1;jettySize=auto;html=1;entryX=-0.036;entryY=0.507;entryDx=0;entryDy=0;entryPerimeter=0;" edge="1" parent="WIyWlLk6GJQsqaUBKTNV-1" source="q7FJDD5VSt3NeZFvOub5-19" target="q7FJDD5VSt3NeZFvOub5-21">
          <mxGeometry relative="1" as="geometry" />
        </mxCell>
        <mxCell id="q7FJDD5VSt3NeZFvOub5-26" value="Да" style="edgeLabel;html=1;align=center;verticalAlign=middle;resizable=0;points=[];" vertex="1" connectable="0" parent="q7FJDD5VSt3NeZFvOub5-24">
          <mxGeometry x="-0.2188" y="3" relative="1" as="geometry">
            <mxPoint x="1" as="offset" />
          </mxGeometry>
        </mxCell>
        <mxCell id="q7FJDD5VSt3NeZFvOub5-19" value="Число пользователя больше?" style="strokeWidth=2;html=1;shape=mxgraph.flowchart.decision;whiteSpace=wrap;" vertex="1" parent="WIyWlLk6GJQsqaUBKTNV-1">
          <mxGeometry x="490" y="930" width="100" height="100" as="geometry" />
        </mxCell>
        <mxCell id="q7FJDD5VSt3NeZFvOub5-33" style="edgeStyle=orthogonalEdgeStyle;rounded=0;orthogonalLoop=1;jettySize=auto;html=1;entryX=0.099;entryY=0.411;entryDx=0;entryDy=0;entryPerimeter=0;" edge="1" parent="WIyWlLk6GJQsqaUBKTNV-1" source="q7FJDD5VSt3NeZFvOub5-21" target="q7FJDD5VSt3NeZFvOub5-28">
          <mxGeometry relative="1" as="geometry" />
        </mxCell>
        <mxCell id="q7FJDD5VSt3NeZFvOub5-21" value="min=guess+1" style="rounded=1;whiteSpace=wrap;html=1;absoluteArcSize=1;arcSize=14;strokeWidth=2;" vertex="1" parent="WIyWlLk6GJQsqaUBKTNV-1">
          <mxGeometry x="650" y="960" width="100" height="40" as="geometry" />
        </mxCell>
        <mxCell id="q7FJDD5VSt3NeZFvOub5-32" style="edgeStyle=orthogonalEdgeStyle;rounded=0;orthogonalLoop=1;jettySize=auto;html=1;entryX=0.036;entryY=0.566;entryDx=0;entryDy=0;entryPerimeter=0;" edge="1" parent="WIyWlLk6GJQsqaUBKTNV-1" source="q7FJDD5VSt3NeZFvOub5-22" target="q7FJDD5VSt3NeZFvOub5-28">
          <mxGeometry relative="1" as="geometry" />
        </mxCell>
        <mxCell id="q7FJDD5VSt3NeZFvOub5-22" value="max=guess-1" style="rounded=1;whiteSpace=wrap;html=1;absoluteArcSize=1;arcSize=14;strokeWidth=2;" vertex="1" parent="WIyWlLk6GJQsqaUBKTNV-1">
          <mxGeometry x="650" y="1080" width="100" height="40" as="geometry" />
        </mxCell>
        <mxCell id="q7FJDD5VSt3NeZFvOub5-29" style="edgeStyle=orthogonalEdgeStyle;rounded=0;orthogonalLoop=1;jettySize=auto;html=1;entryX=1;entryY=0.4;entryDx=0;entryDy=0;entryPerimeter=0;" edge="1" parent="WIyWlLk6GJQsqaUBKTNV-1" source="q7FJDD5VSt3NeZFvOub5-28" target="q7FJDD5VSt3NeZFvOub5-12">
          <mxGeometry relative="1" as="geometry">
            <Array as="points">
              <mxPoint x="850" y="750" />
            </Array>
          </mxGeometry>
        </mxCell>
        <mxCell id="q7FJDD5VSt3NeZFvOub5-30" value="Да" style="edgeLabel;html=1;align=center;verticalAlign=middle;resizable=0;points=[];" vertex="1" connectable="0" parent="q7FJDD5VSt3NeZFvOub5-29">
          <mxGeometry x="-0.8035" relative="1" as="geometry">
            <mxPoint as="offset" />
          </mxGeometry>
        </mxCell>
        <mxCell id="q7FJDD5VSt3NeZFvOub5-35" style="edgeStyle=orthogonalEdgeStyle;rounded=0;orthogonalLoop=1;jettySize=auto;html=1;entryX=0.499;entryY=-0.062;entryDx=0;entryDy=0;entryPerimeter=0;" edge="1" parent="WIyWlLk6GJQsqaUBKTNV-1" source="q7FJDD5VSt3NeZFvOub5-28" target="q7FJDD5VSt3NeZFvOub5-34">
          <mxGeometry relative="1" as="geometry" />
        </mxCell>
        <mxCell id="q7FJDD5VSt3NeZFvOub5-28" value="max&amp;gt;min" style="strokeWidth=2;html=1;shape=mxgraph.flowchart.decision;whiteSpace=wrap;" vertex="1" parent="WIyWlLk6GJQsqaUBKTNV-1">
          <mxGeometry x="800" y="990" width="100" height="100" as="geometry" />
        </mxCell>
        <mxCell id="q7FJDD5VSt3NeZFvOub5-37" style="edgeStyle=orthogonalEdgeStyle;rounded=0;orthogonalLoop=1;jettySize=auto;html=1;entryX=1.036;entryY=0.481;entryDx=0;entryDy=0;entryPerimeter=0;" edge="1" parent="WIyWlLk6GJQsqaUBKTNV-1" source="q7FJDD5VSt3NeZFvOub5-34" target="q7FJDD5VSt3NeZFvOub5-15">
          <mxGeometry relative="1" as="geometry" />
        </mxCell>
        <mxCell id="q7FJDD5VSt3NeZFvOub5-34" value="Сообщить, что пользователь обманщик" style="strokeWidth=2;html=1;shape=mxgraph.flowchart.display;whiteSpace=wrap;" vertex="1" parent="WIyWlLk6GJQsqaUBKTNV-1">
          <mxGeometry x="800" y="1200" width="100" height="60" as="geometry" />
        </mxCell>
      </root>
    </mxGraphModel>
  </diagram>
</mxfile>
